# xmcd
# 
# Track frame offsets:
#     150
#     14280
#     30906
#     55087
#     74328
#     102508
#     119464
#     134300
#     156651
#     177253
#     192673
#     210097
#     233921
#     245700
#     272219
#     287499
# 
# Disc length: 4091
# 
# Revision: 0
# Processed by: cddbd v1.5.2PL0 Copyright (c) Steve Scherf et al.
# Submitted via: fre:ac v1.0.31
# 
DISCID=ea0ff910
DTITLE=Blues - Stress Relief Disc 3
DYEAR=0
DGENRE=Blues
TTITLE0=I Got My Mojo Working
TTITLE1=Boogie With The River
TTITLE2=Comes Love
TTITLE3=Love Me Or Leave Me
TTITLE4=Money Shot
TTITLE5=Standing In Hallways
TTITLE6=The Happy Song
TTITLE7=Matchbox Defined
TTITLE8=Care, Why Don't We
TTITLE9=Lonely Avenue
TTITLE10=When The Well Runs Dry
TTITLE11=I Will Always Come Back To You
TTITLE12=Indians Blues
TTITLE13=Slings And Arrows
TTITLE14=Everyone's A 10 At 2:00
TTITLE15=Shape Up Or Ship Out
EXTD=
EXTT0=
EXTT1=
EXTT2=
EXTT3=
EXTT4=
EXTT5=
EXTT6=
EXTT7=
EXTT8=
EXTT9=
EXTT10=
EXTT11=
EXTT12=
EXTT13=
EXTT14=
EXTT15=
PLAYORDER=
